<svg id="Layer_1" data-name="Layer 1" xmlns="http://www.w3.org/2000/svg" viewBox="0 0 694.09 338.19"><defs><style>.cls-1{fill:#fff;}.cls-2{fill:none;}</style></defs><title>tannhjul</title><circle class="cls-1" cx="123.59" cy="123.59" r="84.58"/><path class="cls-1" d="M235.93,341.4h-68.4l16-80.81a4.85,4.85,0,0,1,4.92-3.63h26.74a4.73,4.73,0,0,1,4.8,3.54Z" transform="translate(-78.14 -256.96)"/><path class="cls-1" d="M240.88,414.75v-68.4l80.81,16a4.85,4.85,0,0,1,3.63,4.92V394a4.73,4.73,0,0,1-3.54,4.8Z" transform="translate(-78.14 -256.96)"/><path class="cls-1" d="M162.58,346.35v68.4l-80.81-16a4.85,4.85,0,0,1-3.63-4.92V367.12a4.73,4.73,0,0,1,3.54-4.8Z" transform="translate(-78.14 -256.96)"/><path class="cls-1" d="M198.23,328.69,149.87,377,104,308.62a4.85,4.85,0,0,1,.91-6l18.91-18.91a4.73,4.73,0,0,1,5.9-.89Z" transform="translate(-78.14 -256.96)"/><path class="cls-1" d="M253.59,377l-48.36-48.36,68.43-45.86a4.85,4.85,0,0,1,6,.91l18.91,18.91a4.73,4.73,0,0,1,.89,5.9Z" transform="translate(-78.14 -256.96)"/><path class="cls-1" d="M149.87,384l48.36,48.36L129.8,478.27a4.85,4.85,0,0,1-6-.91l-18.91-18.91a4.73,4.73,0,0,1-.89-5.9Z" transform="translate(-78.14 -256.96)"/><path class="cls-1" d="M205.23,432.41,253.59,384l45.86,68.43a4.85,4.85,0,0,1-.91,6l-18.91,18.91a4.73,4.73,0,0,1-5.9.89Z" transform="translate(-78.14 -256.96)"/><path class="cls-1" d="M167.53,419.7h68.4l-16,80.81a4.85,4.85,0,0,1-4.92,3.63H188.31a4.73,4.73,0,0,1-4.8-3.54Z" transform="translate(-78.14 -256.96)"/><circle class="cls-2" cx="123.59" cy="120.09" r="36.98"/><circle class="cls-1" cx="417.72" cy="474.51" r="84.58" transform="translate(-219.7 -77.15) rotate(-20.86)"/><path class="cls-1" d="M435.74,425.75,371.82,450.1,358,368.9a4.85,4.85,0,0,1,3.3-5.15l25-9.52a4.73,4.73,0,0,1,5.74,1.6Z" transform="translate(-78.14 -256.96)"/><path class="cls-1" d="M466.48,492.53l-24.35-63.91,81.2-13.86a4.85,4.85,0,0,1,5.15,3.3L538,443a4.73,4.73,0,0,1-1.6,5.74Z" transform="translate(-78.14 -256.96)"/><path class="cls-1" d="M369,456.49l24.35,63.91-81.2,13.86A4.85,4.85,0,0,1,307,531l-9.52-25a4.73,4.73,0,0,1,1.6-5.74Z" transform="translate(-78.14 -256.96)"/><path class="cls-1" d="M396,427.29,368,489.7l-67.22-47.62a4.85,4.85,0,0,1-1.3-6l10.94-24.4a4.73,4.73,0,0,1,5.19-2.93Z" transform="translate(-78.14 -256.96)"/><path class="cls-1" d="M464.94,452.77l-62.41-28,47.62-67.22a4.85,4.85,0,0,1,6-1.3l24.4,10.94a4.73,4.73,0,0,1,2.93,5.19Z" transform="translate(-78.14 -256.96)"/><path class="cls-1" d="M370.5,496.24l62.41,28-47.62,67.22a4.85,4.85,0,0,1-6,1.3l-24.4-10.94A4.73,4.73,0,0,1,352,576.6Z" transform="translate(-78.14 -256.96)"/><path class="cls-1" d="M439.45,521.73l28-62.41,67.22,47.62a4.85,4.85,0,0,1,1.3,6L525,537.31a4.73,4.73,0,0,1-5.19,2.93Z" transform="translate(-78.14 -256.96)"/><path class="cls-1" d="M399.7,523.27l63.91-24.35,13.86,81.2a4.85,4.85,0,0,1-3.3,5.15l-25,9.52a4.73,4.73,0,0,1-5.74-1.6Z" transform="translate(-78.14 -256.96)"/><circle class="cls-2" cx="416.47" cy="471.24" r="36.98" transform="translate(-218.62 -77.81) rotate(-20.86)"/><circle class="cls-1" cx="649.5" cy="450.1" r="84.58" transform="translate(-176.91 -60.87) rotate(-15.97)"/><path class="cls-1" d="M696.54,472.2l-18.82-65.76,82.08-6.89a4.85,4.85,0,0,1,4.85,3.73L772,429a4.73,4.73,0,0,1-2.08,5.59Z" transform="translate(-78.14 -256.96)"/><path class="cls-1" d="M627.39,497.15l65.76-18.82L700,560.41a4.85,4.85,0,0,1-3.73,4.85l-25.71,7.36a4.73,4.73,0,0,1-5.59-2.08Z" transform="translate(-78.14 -256.96)"/><path class="cls-1" d="M671.6,403.05l-65.76,18.82L599,339.79a4.85,4.85,0,0,1,3.73-4.85l25.71-7.36a4.73,4.73,0,0,1,5.59,2.08Z" transform="translate(-78.14 -256.96)"/><path class="cls-1" d="M698.4,432.46l-59.8-33.19,53.17-62.92a4.85,4.85,0,0,1,6.06-.79l23.38,13a4.73,4.73,0,0,1,2.48,5.42Z" transform="translate(-78.14 -256.96)"/><path class="cls-1" d="M667.13,499l33.19-59.8,62.92,53.17a4.85,4.85,0,0,1,.79,6.06l-13,23.38a4.73,4.73,0,0,1-5.42,2.48Z" transform="translate(-78.14 -256.96)"/><path class="cls-1" d="M631.86,401.2,598.67,461l-62.92-53.17a4.85,4.85,0,0,1-.79-6.06l13-23.38a4.73,4.73,0,0,1,5.42-2.48Z" transform="translate(-78.14 -256.96)"/><path class="cls-1" d="M600.6,467.74l59.8,33.19-53.17,62.92a4.85,4.85,0,0,1-6.06.79l-23.38-13a4.73,4.73,0,0,1-2.48-5.42Z" transform="translate(-78.14 -256.96)"/><path class="cls-1" d="M602.45,428l18.82,65.76-82.08,6.89a4.85,4.85,0,0,1-4.85-3.73L527,471.2a4.73,4.73,0,0,1,2.08-5.59Z" transform="translate(-78.14 -256.96)"/><circle class="cls-2" cx="652.86" cy="449.14" r="36.98" transform="translate(-176.52 -59.98) rotate(-15.97)"/></svg>