<svg id="Layer_1" data-name="Layer 1" xmlns="http://www.w3.org/2000/svg" viewBox="0 0 1005.93 223.16"><defs><style>.cls-1{fill:#fff;}</style></defs><title>Liggende Logo</title><path class="cls-1" d="M516.72,332.34H535V436.72H516.72Z" transform="translate(-180.07 -272.67)"/><path class="cls-1" d="M562.5,332.34h20.78l23.54,43.52C620,400,625,412.71,625,412.71s-1.16-12.85-1.16-36.86V332.34h18.45V436.72H621.34l-23.83-43.36c-12.79-22.92-18.31-37.48-18.31-37.48s1.6,14.71,1.6,37.32v43.52H562.5Z" transform="translate(-180.07 -272.67)"/><path class="cls-1" d="M687.75,348.29v30.82h34v16h-34v41.66H669.3V332.34h57.39v15.95Z" transform="translate(-180.07 -272.67)"/><path class="cls-1" d="M788,330.48c28.62,0,46.35,21.37,46.35,53.74,0,32.06-18,53.59-46.21,53.59s-46.35-21.37-46.35-53.59S759.82,330.48,788,330.48Zm.15,89.36c16.56,0,26.59-13.63,26.59-35.62s-10-35.77-26.74-35.77c-16.42,0-26.59,13.78-26.59,35.77S771.88,419.84,788.15,419.84Z" transform="translate(-180.07 -272.67)"/><path class="cls-1" d="M915.3,348.45H890.45v88.27H872V348.45H847.15V332.34H915.3Z" transform="translate(-180.07 -272.67)"/><path class="cls-1" d="M992.6,420.77v16H934.19V332.34H992v15.95H952.64v28.34h35v15.79h-35v28.34Z" transform="translate(-180.07 -272.67)"/><path class="cls-1" d="M1085.31,355.72c-8.28-5.11-14.53-6.81-24.41-6.81-17.29,0-31.24,13.47-31.24,35.62,0,22,13.22,35.47,32.26,35.47,8.28,0,17.29-2.79,23.54-7.74v19.51c-7.41,5.11-17.58,6.2-25.28,6.2-28.48,0-50.13-20.75-50.13-53.43,0-31.75,20.78-53.58,50.13-53.58,8,0,17.58.93,25.14,5.73Z" transform="translate(-180.07 -272.67)"/><path class="cls-1" d="M1186,332.34V436.72h-18.45V392.89H1127.3v43.83H1109V332.34h18.31V376h40.25V332.34Z" transform="translate(-180.07 -272.67)"/><path class="cls-1" d="M403.17,384.54s0-.1,0-.15,0-.08,0-.11c0-.85,0-1.69-.06-2.53a110.58,110.58,0,0,0-27.31-70.16,100.55,100.55,0,0,1,16.78,55.74c0,55.92-45.45,101.25-101.52,101.25S189.53,423.26,189.53,367.34a100.53,100.53,0,0,1,13.37-50.2,110.51,110.51,0,0,0-22.79,65.78c0,.46,0,.91,0,1.37,0,0,0,.08,0,.13s0,.09,0,.13a111.55,111.55,0,0,0,223.09,0Z" transform="translate(-180.07 -272.67)"/><path class="cls-1" d="M306.25,452.26A85.54,85.54,0,1,1,350.93,293.7a94.06,94.06,0,0,0-52.86-20.76l-1.19-.08q-2.05-.11-4.13-.14c-.44,0-.87,0-1.31,0a94.1,94.1,0,1,0,60.26,166.59A85.52,85.52,0,0,1,306.25,452.26Z" transform="translate(-180.07 -272.67)"/><path class="cls-1" d="M383.2,366.8a77.38,77.38,0,0,0-126.07-60.2c-.68.54-1.35,1.09-2,1.65l-1,.86a77.06,77.06,0,0,0-25.88,51.52,70.43,70.43,0,1,1,85.16,83.27,77.53,77.53,0,0,0,57.73-35.78c-.08.16-.14.33-.22.49A77.05,77.05,0,0,0,383.2,366.8Z" transform="translate(-180.07 -272.67)"/></svg>